<?xml version="1.0" encoding="utf-8"?>
<!-- Generator: Adobe Illustrator 21.0.0, SVG Export Plug-In . SVG Version: 6.00 Build 0)  -->
<svg version="1.1" id="Layer_1" xmlns="http://www.w3.org/2000/svg" xmlns:xlink="http://www.w3.org/1999/xlink" x="0px" y="0px"
	 viewBox="0 0 1159.1 1142.8" style="enable-background:new 0 0 1159.1 1142.8;" xml:space="preserve">
<style type="text/css">
	.st0{fill:#999999;}
	.st1{fill:#FFFFFF;}
	.st2{fill:none;stroke:#000000;stroke-width:64;stroke-linecap:round;stroke-miterlimit:10;}
	.st3{fill:#FFFFFF;stroke:#000000;stroke-width:64;stroke-linecap:round;stroke-miterlimit:10;}
	.st4{fill:none;stroke:#000000;stroke-width:64;stroke-linecap:round;stroke-linejoin:round;stroke-miterlimit:10;}
</style>
<g>
	<g>
		<path d="M579.5,1071c-67.4,0-132.9-13.2-194.5-39.3c-59.5-25.2-112.9-61.2-158.8-107.1c-45.9-45.9-81.9-99.3-107.1-158.8
			c-26.1-61.6-39.3-127.1-39.3-194.5s13.2-132.9,39.3-194.5c25.2-59.5,61.2-112.9,107.1-158.8c45.9-45.9,99.3-81.9,158.8-107.1
			C446.7,85,512.1,71.8,579.5,71.8S712.4,85,774,111c59.5,25.2,112.9,61.2,158.8,107.1s81.9,99.3,107.1,158.8
			c26.1,61.6,39.3,127.1,39.3,194.5s-13.2,132.9-39.3,194.5c-25.2,59.5-61.2,112.9-107.1,158.8c-45.9,45.9-99.3,81.9-158.8,107.1
			C712.4,1057.8,647,1071,579.5,1071z M579.5,135.8c-58.8,0-115.9,11.5-169.6,34.2c-51.9,21.9-98.5,53.4-138.5,93.4
			c-40,40-71.4,86.6-93.4,138.5c-22.7,53.7-34.2,110.7-34.2,169.6s11.5,115.9,34.2,169.6c21.9,51.9,53.4,98.5,93.4,138.5
			c40,40,86.6,71.4,138.5,93.4c53.7,22.7,110.7,34.2,169.6,34.2s115.9-11.5,169.6-34.2c51.9-21.9,98.5-53.4,138.5-93.4
			c40-40,71.4-86.6,93.4-138.5c22.7-53.7,34.2-110.7,34.2-169.6s-11.5-115.9-34.2-169.6c-21.9-51.9-53.4-98.5-93.4-138.5
			S801,191.9,749.1,170C695.4,147.3,638.4,135.8,579.5,135.8z"/>
	</g>
	<g>
		<path d="M481.6,782.6c-8.2,0-16.4-3.1-22.6-9.4L296.5,610.7c-12.5-12.5-12.5-32.8,0-45.3c12.5-12.5,32.8-12.5,45.3,0l139.8,139.8
			l335.7-335.7c12.5-12.5,32.8-12.5,45.3,0c12.5,12.5,12.5,32.8,0,45.3L504.2,773.2C498,779.5,489.8,782.6,481.6,782.6z"/>
	</g>
</g>
</svg>
